# xmcd
#
# Track frame offsets:
#	150
#	14303
#	30086
#	41360
#	56155
#	73319
#	84885
#	105289
#	117905
#	130078
#	144728
#	157543
#	172519
#	189142
#
# Disc length: 2697 seconds
# Revision: 0
# Processed by: cddbd v1.5.2PL0 Copyright (c) Steve Scherf et al.
# Submitted via: dBpowerAMP V12.0
#
DISCID=990a870e
DTITLE=WALLER RANDY - CAUTION TO THE WIND
DYEAR=2016
DGENRE=Country
TTITLE0=If It Hadn't Been For Love
TTITLE1=Savannah Woman
TTITLE2=Skippin' In The Mississippi Dew
TTITLE3=Send My Body Home
TTITLE4=Her Song
TTITLE5=Jack See Nock
TTITLE6=Little By Little
TTITLE7=Richland Street Front Porch Rag
TTITLE8=Rather Be Fishin'
TTITLE9=Fill My Pockets
TTITLE10=Spike Driver Blues
TTITLE11=Someday
TTITLE12=Western Flyer
TTITLE13=Golden Wedding Bands
EXTD=
EXTT0=
EXTT1=
EXTT2=
EXTT3=
EXTT4=
EXTT5=
EXTT6=
EXTT7=
EXTT8=
EXTT9=
EXTT10=
EXTT11=
EXTT12=
EXTT13=
PLAYORDER=
